<?xml version="1.0" encoding="UTF-8" standalone="no"?><!DOCTYPE svg PUBLIC "-//W3C//DTD SVG 1.1//EN" "http://www.w3.org/Graphics/SVG/1.1/DTD/svg11.dtd"><svg width="100%" height="100%" viewBox="0 0 837 536" version="1.1" xmlns="http://www.w3.org/2000/svg" xmlns:xlink="http://www.w3.org/1999/xlink" xml:space="preserve" xmlns:serif="http://www.serif.com/" style="fill-rule:evenodd;clip-rule:evenodd;stroke-linejoin:round;stroke-miterlimit:2;"><g id="Logo-mit-astro.com-rechts" serif:id="Logo mit astro.com rechts"><path d="M413.197,534.405l-31.23,-170.567l-129.646,134.738l75.558,-160.696l-193.328,62.805l162.098,-107.764l-205.204,-25.952l205.204,-25.959l-162.098,-107.761l193.328,62.803l-75.558,-160.692l129.646,134.734l31.23,-170.563l31.223,170.563l129.653,-134.734l-75.563,160.692l193.332,-62.803l-162.103,107.761l205.209,25.959l-205.209,25.952l162.103,107.764l-193.332,-62.805l75.563,160.696l-129.653,-134.738l-31.223,170.567Z" style="fill:#ffb93d;fill-rule:nonzero;"/><path d="M56.021,331.707c-30.303,-0 -55.51,-27.342 -55.51,-61.082c0,-33.74 25.216,-61.091 55.519,-61.091l722.386,0.128c30.303,-0 55.52,27.35 55.52,61.089c-0,33.739 -25.207,61.085 -55.51,61.085l-722.405,-0.129Z" style="fill:#fff;fill-rule:nonzero;"/><path d="M57.166,321.91c-25.364,-0 -46.464,-22.888 -46.464,-51.129c-0,-28.243 21.107,-51.137 46.472,-51.137l718.161,0.005c25.366,-0 46.474,22.893 46.474,51.136c0,28.244 -21.101,51.132 -46.467,51.132l-718.176,-0.007Z" style="fill:#075b9b;fill-rule:nonzero;"/><path d="M54.374,331.707c-30.303,-0 -56.055,-27.352 -56.055,-61.092l0.002,0.02c-0,-33.74 25.214,-61.108 55.516,-61.108l300.798,0.013c30.303,-0 55.518,27.35 55.518,61.089c0,33.739 -25.206,61.085 -55.509,61.085l-300.27,-0.007Z" style="fill:#fff;fill-rule:nonzero;"/><path d="M56.689,321.907c-25.366,-0 -46.467,-22.888 -46.467,-51.129c0,-28.243 21.108,-51.137 46.474,-51.137l295.708,0.004c25.367,0 46.474,22.894 46.474,51.136c-0,28.241 -21.101,51.129 -46.466,51.129l-295.723,-0.003Z" style="fill:#075b9b;fill-rule:nonzero;"/><g><path d="M92.619,239.284l27.114,61.392l-12.524,-0l-6.372,-14.942l-27.291,0l-5.932,14.942l-12.437,-0l25.313,-61.392l12.129,0Zm-15.469,37.442l19.819,-0l-10.371,-24.302l-9.448,24.302Z" style="fill:#fff;fill-rule:nonzero;"/><path d="M144.738,238.493c5.976,0 11.733,1.494 17.27,4.483l0,10.546c-6.357,-3.837 -11.997,-5.756 -16.919,-5.756c-2.988,-0 -5.324,0.578 -7.009,1.735c-1.684,1.158 -2.527,2.703 -2.527,4.637c0,2.314 1.568,4.453 4.702,6.416c0.879,0.586 4.263,2.226 10.152,4.922c5.039,2.373 8.672,5.009 10.898,7.91c2.227,2.9 3.34,6.386 3.34,10.459c0,5.273 -1.897,9.528 -5.691,12.766c-3.794,3.237 -8.708,4.856 -14.743,4.856c-3.926,-0 -7.303,-0.432 -10.13,-1.297c-2.827,-0.864 -5.998,-2.351 -9.514,-4.46l-0,-11.69c6.562,5.45 12.744,8.174 18.545,8.174c2.9,0 5.244,-0.63 7.031,-1.889c1.787,-1.26 2.681,-2.93 2.681,-5.01c-0,-2.842 -1.553,-5.156 -4.658,-6.943c-2.579,-1.407 -5.904,-3.091 -9.976,-5.054c-4.834,-2.197 -8.445,-4.761 -10.833,-7.691c-2.387,-2.929 -3.581,-6.328 -3.581,-10.195c-0,-5.156 1.919,-9.265 5.757,-12.327c3.838,-3.061 8.906,-4.592 15.205,-4.592Z" style="fill:#fff;fill-rule:nonzero;"/><path d="M224.147,239.284l0,9.273l-21.797,-0l0,52.119l-11.865,-0l-0,-52.119l-21.797,-0l0,-9.273l55.459,0Z" style="fill:#fff;fill-rule:nonzero;"/><path d="M255.26,239.284c5.772,0 10.474,1.597 14.107,4.79c3.633,3.194 5.449,7.354 5.449,12.481c-0,3.486 -0.901,6.526 -2.703,9.118c-1.801,2.593 -4.475,4.637 -8.02,6.131c1.963,1.054 3.706,2.49 5.23,4.306c1.523,1.817 3.413,4.878 5.669,9.185c3.75,7.441 6.533,12.568 8.349,15.381l-13.227,-0c-0.908,-1.348 -2.139,-3.501 -3.692,-6.46c-3.398,-6.533 -5.888,-10.935 -7.47,-13.206c-1.582,-2.27 -3.106,-3.882 -4.571,-4.834c-1.464,-0.952 -3.149,-1.428 -5.053,-1.428l-4.307,-0l0,25.928l-11.865,-0l-0,-61.392l22.104,0Zm-2.68,26.192c3.105,-0 5.544,-0.777 7.317,-2.33c1.772,-1.552 2.658,-3.676 2.658,-6.372c0,-2.812 -0.879,-4.914 -2.636,-6.306c-1.758,-1.391 -4.263,-2.087 -7.515,-2.087l-7.383,-0l0,17.095l7.559,-0Z" style="fill:#fff;fill-rule:nonzero;"/><path d="M319.904,238.493c6.357,0 12.078,1.311 17.161,3.933c5.083,2.622 9.133,6.402 12.15,11.338c3.018,4.937 4.527,10.349 4.527,16.238c-0,5.742 -1.472,11.067 -4.417,15.974c-2.944,4.907 -6.987,8.716 -12.129,11.426c-5.141,2.71 -10.935,4.065 -17.38,4.065c-6.357,-0 -12.136,-1.377 -17.336,-4.131c-5.201,-2.754 -9.251,-6.541 -12.151,-11.36c-2.901,-4.819 -4.351,-10.144 -4.351,-15.974c0,-5.625 1.45,-10.913 4.351,-15.864c2.9,-4.952 6.899,-8.797 11.997,-11.536c5.097,-2.739 10.957,-4.109 17.578,-4.109Zm-21.665,31.509c-0,4.072 0.923,7.734 2.768,10.986c1.846,3.252 4.417,5.772 7.713,7.559c3.296,1.787 7.024,2.68 11.184,2.68c6.299,0 11.477,-1.977 15.535,-5.932c4.057,-3.955 6.086,-9.053 6.086,-15.293c-0,-4.072 -0.916,-7.742 -2.747,-11.008c-1.831,-3.267 -4.409,-5.794 -7.734,-7.581c-3.325,-1.787 -7.068,-2.681 -11.228,-2.681c-4.16,0 -7.903,0.901 -11.228,2.703c-3.325,1.802 -5.881,4.321 -7.668,7.559c-1.788,3.237 -2.681,6.906 -2.681,11.008Z" style="fill:#fff;fill-rule:nonzero;"/></g><g><path d="M457.128,239.19c6.386,0 12.07,1.304 17.05,3.912c4.981,2.607 8.848,6.269 11.602,10.986c2.754,4.717 4.131,10.019 4.131,15.908c-0,6.006 -1.385,11.331 -4.153,15.974c-2.769,4.644 -6.702,8.24 -11.799,10.789c-5.098,2.549 -10.943,3.823 -17.535,3.823l-25.004,-0l-0,-61.392l25.708,0Zm-1.231,52.12c6.563,-0 11.829,-1.971 15.798,-5.911c3.97,-3.941 5.955,-9.104 5.955,-15.491c-0,-6.621 -2,-11.85 -5.999,-15.688c-3.999,-3.838 -9.382,-5.757 -16.149,-5.757l-12.217,-0l-0,42.847l12.612,-0Z" style="fill:#fff;fill-rule:nonzero;"/><rect x="501.249" y="239.19" width="11.865" height="61.392" style="fill:#fff;fill-rule:nonzero;"/><path d="M566.595,239.19l0,9.273l-27.817,-0l-0,16.128l26.631,-0l-0,9.272l-26.631,0l-0,17.447l28.433,-0l-0,9.272l-40.298,-0l-0,-61.392l39.682,0Z" style="fill:#fff;fill-rule:nonzero;"/><path d="M588.7,239.19l36.474,42.847l0,-42.847l11.602,0l-0,61.392l-10.195,-0l-36.695,-43.55l0,43.55l-11.601,-0l-0,-61.392l10.415,0Z" style="fill:#fff;fill-rule:nonzero;"/><path d="M668.065,238.399c5.977,0 11.733,1.494 17.271,4.483l-0,10.547c-6.358,-3.838 -11.998,-5.757 -16.919,-5.757c-2.989,-0 -5.325,0.578 -7.01,1.736c-1.684,1.157 -2.527,2.702 -2.527,4.636c0,2.314 1.568,4.453 4.703,6.416c0.879,0.586 4.262,2.226 10.151,4.922c5.039,2.373 8.672,5.01 10.898,7.91c2.227,2.9 3.34,6.387 3.34,10.459c0,5.273 -1.897,9.529 -5.691,12.766c-3.794,3.237 -8.708,4.856 -14.743,4.856c-3.926,-0 -7.303,-0.432 -10.13,-1.296c-2.827,-0.865 -5.998,-2.351 -9.514,-4.461l0,-11.689c6.563,5.449 12.744,8.174 18.545,8.174c2.9,-0 5.244,-0.63 7.031,-1.89c1.787,-1.26 2.681,-2.93 2.681,-5.01c-0,-2.842 -1.553,-5.156 -4.658,-6.943c-2.578,-1.406 -5.904,-3.091 -9.976,-5.054c-4.834,-2.197 -8.445,-4.761 -10.832,-7.69c-2.388,-2.93 -3.582,-6.329 -3.582,-10.196c0,-5.156 1.919,-9.265 5.757,-12.326c3.838,-3.062 8.906,-4.593 15.205,-4.593Z" style="fill:#fff;fill-rule:nonzero;"/><path d="M747.474,239.19l0,9.273l-21.797,-0l0,52.119l-11.865,-0l0,-52.119l-21.797,-0l0,-9.273l55.459,0Z" style="fill:#fff;fill-rule:nonzero;"/></g></g></svg>